<?xml version="1.0" encoding="UTF-8"?>
<svg width="118px" height="118px" viewBox="0 0 118 118" version="1.1" xmlns="http://www.w3.org/2000/svg" xmlns:xlink="http://www.w3.org/1999/xlink">
    <!-- Generator: Sketch 54.1 (76490) - https://sketchapp.com -->
    <title>noun_Eiffel Tower_443826</title>
    <desc>Created with Sketch.</desc>
    <g id="Page-1" stroke="none" stroke-width="1" fill="none" fill-rule="evenodd">
        <g id="wireframe" transform="translate(-567.000000, -1878.000000)" stroke="#68B0AB" stroke-width="2">
            <g id="noun_Eiffel-Tower_443826" transform="translate(568.000000, 1879.000000)">
                <g id="Group">
                    <g id="Path">
                        <g>
                            <path d="M116,58 C116,90.032 90.032,116 58,116 C25.968,116 0,90.032 0,58 C0,25.968 25.968,0 58,0 C90.032,0 116,25.968 116,58 L116,58 Z" stroke-linecap="round"></path>
                            <path d="M114.6744,45.6734 C112.6504,36.3274 108.3804,27.8234 102.4484,20.7534 C99.3924,21.5074 96.7804,23.9874 96.7804,29.9594 C96.7804,31.1994 95.1804,31.8334 93.9424,31.8334 L93.2684,31.8334 C90.2044,31.8334 87.3224,33.6834 86.3744,36.5974 C84.7944,41.4614 88.4344,45.9994 93.0824,45.9994 L112.5524,45.9994 C113.2824,45.9994 113.9904,45.8694 114.6744,45.6734 L114.6744,45.6734 Z" stroke-linecap="round"></path>
                            <polygon points="42 16 74 16 74 8 42 8"></polygon>
                            <polygon points="30 76 86 76 86 68 30 68"></polygon>
                            <path d="M38,68 L38,76"></path>
                            <path d="M46,68 L46,76"></path>
                            <path d="M54,68 L54,76"></path>
                            <path d="M62,68 L62,76"></path>
                            <path d="M70,68 L70,76"></path>
                            <path d="M78,68 L78,76"></path>
                            <path d="M58,68 L58,26"></path>
                            <path d="M58,76 L58,116"></path>
                            <path d="M58,116 L82.868,91.132" stroke-linecap="round"></path>
                            <path d="M58,116 L33.158,91.158" stroke-linecap="round"></path>
                            <path d="M58,76 L27,107" stroke-linecap="round"></path>
                            <path d="M58,76 L90.15,106.272" stroke-linecap="round"></path>
                            <path d="M64,68 L72,60" stroke-linecap="round"></path>
                            <path d="M52,68 L44,60" stroke-linecap="round"></path>
                            <path d="M44,60 L68,36" stroke-linecap="round"></path>
                            <path d="M72,60 L47.634,35.634" stroke-linecap="round"></path>
                            <path d="M58,26 L47.634,35.634" stroke-linecap="round"></path>
                            <path d="M58,26 L68.472,36.472" stroke-linecap="round"></path>
                            <path d="M38,76 L58,96" stroke-linecap="round"></path>
                            <path d="M58,96 L78,76" stroke-linecap="round"></path>
                            <path d="M58,96 L40,113.148" stroke-linecap="round"></path>
                            <path d="M58,96 L75.358,113.358" stroke-linecap="round"></path>
                            <path d="M68,26 L68,16 L48,16 L48,26 C48,40.762 45.358,55.054 41.552,68 L74.448,68 C70.642,55.054 68,40.762 68,26 L68,26 Z" stroke-linecap="round"></path>
                            <path d="M77.0004,76 L39.0004,76 C34.9704,87.74 30.1664,98.082 25.8504,106.272 C35.0524,112.414 46.1064,116 58.0004,116 C69.8944,116 80.9484,112.414 90.1504,106.272 C85.8344,98.082 81.0304,87.74 77.0004,76 L77.0004,76 Z" stroke-linecap="round"></path>
                            <path d="M50,8 L66,8 L66,0.562 C63.384,0.202 60.716,0 58,0 C55.284,0 52.616,0.202 50,0.562 L50,8 L50,8 Z" stroke-linecap="round"></path>
                            <path d="M58,26 L68,16" stroke-linecap="round"></path>
                            <path d="M58,26 L48,16" stroke-linecap="round"></path>
                        </g>
                    </g>
                </g>
            </g>
        </g>
    </g>
</svg>