<?xml version="1.0" encoding="UTF-8"?>
<svg width="109px" height="109px" viewBox="0 0 109 109" version="1.1" xmlns="http://www.w3.org/2000/svg" xmlns:xlink="http://www.w3.org/1999/xlink">
    <!-- Generator: Sketch 54.1 (76490) - https://sketchapp.com -->
    <title>noun_Travel Guide book_1572591</title>
    <desc>Created with Sketch.</desc>
    <g id="Page-1" stroke="none" stroke-width="1" fill="none" fill-rule="evenodd">
        <g id="wireframe" transform="translate(-1047.000000, -1138.000000)" fill="#000000" fill-rule="nonzero">
            <g id="noun_Travel-Guide-book_1572591" transform="translate(1047.000000, 1138.000000)">
                <g id="Group">
                    <polygon id="Path" points="24.865625 74.596875 27.25 72.2125 29.634375 74.596875 32.01875 72.2125 29.634375 69.828125 32.01875 67.44375 29.634375 65.059375 27.25 67.44375 24.865625 65.059375 22.48125 67.44375 24.865625 69.828125 22.48125 72.2125"></polygon>
                    <path d="M18.734375,102.1875 L13.625,102.1875 C12.603125,102.1875 11.921875,102.86875 11.921875,103.890625 C11.921875,104.9125 12.603125,105.59375 13.625,105.59375 L18.734375,105.59375 C19.75625,105.59375 20.4375,104.9125 20.4375,103.890625 C20.4375,102.86875 19.75625,102.1875 18.734375,102.1875 Z" id="Path"></path>
                    <path d="M88.5625,102.1875 L83.453125,102.1875 C82.43125,102.1875 81.75,102.86875 81.75,103.890625 C81.75,104.9125 82.43125,105.59375 83.453125,105.59375 L88.5625,105.59375 C89.584375,105.59375 90.265625,104.9125 90.265625,103.890625 C90.265625,102.86875 89.584375,102.1875 88.5625,102.1875 Z" id="Path"></path>
                    <path d="M68.465625,94.1828125 L58.7578125,105.59375 L51.775,105.59375 L40.3640625,94.1828125 C40.0234375,93.8421875 39.6828125,93.671875 39.171875,93.671875 L1.703125,93.671875 L1.703125,97.078125 L38.490625,97.078125 L49.9015625,108.489063 C50.2421875,108.829688 50.5828125,109 51.09375,109 L59.609375,109 C60.1203125,109 60.63125,108.829687 60.971875,108.489063 L70.6796875,97.078125 L107.296875,97.078125 L107.296875,93.671875 L69.828125,93.671875 C69.3171875,93.671875 68.80625,93.8421875 68.465625,94.1828125 Z" id="Path"></path>
                    <path d="M107.296875,0 L66.421875,0 C65.9109375,0 65.4,0.1703125 65.059375,0.68125 L59.95,7.49375 L62.675,9.5375 L67.2734375,3.40625 L105.59375,3.40625 L105.59375,86.859375 L64.71875,86.859375 C64.2078125,86.859375 63.696875,87.0296875 63.35625,87.3703125 L56.203125,95.8859375 L56.203125,13.625 C56.203125,13.1140625 56.0328125,12.7734375 55.6921875,12.4328125 L43.7703125,0.5109375 C43.4296875,0.1703125 43.0890625,0 42.578125,0 L1.703125,0 C0.68125,0 0,0.68125 0,1.703125 L0,88.5625 C0,89.584375 0.68125,90.265625 1.703125,90.265625 L41.896875,90.265625 L53.3078125,101.676563 C53.6484375,102.017188 53.9890625,102.1875 54.5,102.1875 C54.6703125,102.1875 55.0109375,102.1875 55.18125,102.017187 C55.3515625,101.846875 55.6921875,101.676562 55.8625,101.50625 L55.8625,101.50625 L65.5703125,90.0953125 L107.296875,90.0953125 C108.31875,90.0953125 109,89.4140625 109,88.3921875 L109,1.703125 C109,0.68125 108.31875,0 107.296875,0 Z M52.796875,96.396875 L43.7703125,87.3703125 C43.4296875,87.0296875 43.0890625,86.859375 42.578125,86.859375 L3.40625,86.859375 L3.40625,3.40625 L41.896875,3.40625 L52.796875,14.30625 L52.796875,96.396875 Z" id="Shape"></path>
                    <path d="M10.21875,15.328125 C9.196875,15.328125 8.515625,16.009375 8.515625,17.03125 L8.515625,34.0625 C8.515625,35.084375 9.196875,35.765625 10.21875,35.765625 L40.875,35.765625 C41.896875,35.765625 42.578125,35.084375 42.578125,34.0625 L42.578125,17.03125 C42.578125,16.009375 41.896875,15.328125 40.875,15.328125 L10.21875,15.328125 Z M39.171875,32.359375 L11.921875,32.359375 L11.921875,18.734375 L39.171875,18.734375 L39.171875,32.359375 Z" id="Shape"></path>
                    <path d="M40.875,59.609375 L10.21875,59.609375 C9.196875,59.609375 8.515625,60.290625 8.515625,61.3125 L8.515625,78.34375 C8.515625,79.365625 9.196875,80.046875 10.21875,80.046875 L40.875,80.046875 C41.896875,80.046875 42.578125,79.365625 42.578125,78.34375 L42.578125,61.3125 C42.578125,60.290625 41.896875,59.609375 40.875,59.609375 Z M39.171875,76.640625 L11.921875,76.640625 L11.921875,63.015625 L39.171875,63.015625 L39.171875,76.640625 Z" id="Shape"></path>
                    <rect id="Rectangle" x="8.515625" y="8.515625" width="18.734375" height="3.40625"></rect>
                    <rect id="Rectangle" x="8.515625" y="40.875" width="18.734375" height="3.40625"></rect>
                    <rect id="Rectangle" x="8.515625" y="47.6875" width="18.734375" height="3.40625"></rect>
                    <rect id="Rectangle" x="91.96875" y="11.921875" width="8.515625" height="3.40625"></rect>
                    <rect id="Rectangle" x="91.96875" y="18.734375" width="8.515625" height="3.40625"></rect>
                    <rect id="Rectangle" x="91.96875" y="25.546875" width="8.515625" height="3.40625"></rect>
                    <rect id="Rectangle" x="61.3125" y="63.015625" width="8.515625" height="3.40625"></rect>
                    <rect id="Rectangle" x="61.3125" y="69.828125" width="8.515625" height="3.40625"></rect>
                    <rect id="Rectangle" x="61.3125" y="76.640625" width="8.515625" height="3.40625"></rect>
                    <path d="M73.7453125,9.3671875 C65.5703125,9.3671875 59.0984375,16.009375 59.0984375,24.0140625 C59.0984375,31.5078125 71.0203125,46.665625 72.3828125,48.36875 C72.7234375,48.709375 73.234375,49.05 73.7453125,49.05 C74.25625,49.05 74.7671875,48.8796875 75.1078125,48.36875 C76.4703125,46.665625 88.3921875,31.5078125 88.3921875,24.0140625 C88.3921875,15.8390625 81.75,9.3671875 73.7453125,9.3671875 Z M73.7453125,44.621875 C69.6578125,39.3421875 62.5046875,28.7828125 62.5046875,24.0140625 C62.5046875,17.8828125 67.6140625,12.7734375 73.7453125,12.7734375 C79.8765625,12.7734375 84.9859375,17.8828125 84.9859375,24.0140625 C84.9859375,28.7828125 77.8328125,39.3421875 73.7453125,44.621875 Z" id="Shape"></path>
                    <path d="M73.7453125,19.75625 C71.3609375,19.75625 69.4875,21.6296875 69.4875,24.0140625 C69.4875,26.3984375 71.3609375,28.271875 73.7453125,28.271875 C76.1296875,28.271875 78.003125,26.3984375 78.003125,24.0140625 C78.003125,21.6296875 76.1296875,19.75625 73.7453125,19.75625 Z M73.7453125,24.865625 C73.234375,24.865625 72.89375,24.525 72.89375,24.0140625 C72.89375,23.503125 73.234375,23.1625 73.7453125,23.1625 C74.25625,23.1625 74.596875,23.503125 74.596875,24.0140625 C74.596875,24.525 74.25625,24.865625 73.7453125,24.865625 Z" id="Shape"></path>
                    <path d="M74.4265625,59.7796875 C74.4265625,67.2734375 86.3484375,82.43125 87.7109375,84.134375 C88.0515625,84.475 88.5625,84.815625 89.0734375,84.815625 C89.584375,84.815625 90.0953125,84.6453125 90.4359375,84.134375 C91.7984375,82.43125 103.720312,67.2734375 103.720312,59.7796875 C103.720312,51.6046875 97.078125,45.1328125 89.0734375,45.1328125 C81.06875,45.1328125 74.4265625,51.6046875 74.4265625,59.7796875 Z M100.314063,59.7796875 C100.314063,64.5484375 93.1609375,75.1078125 89.0734375,80.3875 C84.9859375,75.1078125 77.8328125,64.5484375 77.8328125,59.7796875 C77.8328125,53.6484375 82.9421875,48.5390625 89.0734375,48.5390625 C95.2046875,48.5390625 100.314063,53.478125 100.314063,59.7796875 Z" id="Shape"></path>
                    <path d="M84.815625,59.7796875 C84.815625,62.1640625 86.6890625,64.0375 89.0734375,64.0375 C91.4578125,64.0375 93.33125,62.1640625 93.33125,59.7796875 C93.33125,57.3953125 91.4578125,55.521875 89.0734375,55.521875 C86.6890625,55.521875 84.815625,57.3953125 84.815625,59.7796875 Z M89.925,59.7796875 C89.925,60.290625 89.584375,60.63125 89.0734375,60.63125 C88.5625,60.63125 88.221875,60.290625 88.221875,59.7796875 C88.221875,59.26875 88.5625,58.928125 89.0734375,58.928125 C89.584375,58.928125 89.925,59.26875 89.925,59.7796875 Z" id="Shape"></path>
                </g>
            </g>
        </g>
    </g>
</svg>