<?xml version="1.0" encoding="UTF-8"?>
<svg width="109px" height="109px" viewBox="0 0 109 109" version="1.1" xmlns="http://www.w3.org/2000/svg" xmlns:xlink="http://www.w3.org/1999/xlink">
    <!-- Generator: Sketch 54.1 (76490) - https://sketchapp.com -->
    <title>noun_customize_1454986</title>
    <desc>Created with Sketch.</desc>
    <g id="Page-1" stroke="none" stroke-width="1" fill="none" fill-rule="evenodd">
        <g id="wireframe" transform="translate(-666.000000, -1138.000000)" fill="#000000" fill-rule="nonzero">
            <g id="noun_customize_1454986" transform="translate(666.000000, 1138.000000)">
                <path d="M107.183333,0 L1.81666667,0 C0.81205,0 0,0.813866667 0,1.81666667 L0,107.183333 C0,108.186133 0.81205,109 1.81666667,109 L107.183333,109 C108.18795,109 109,108.186133 109,107.183333 L109,1.81666667 C109,0.813866667 108.18795,0 107.183333,0 Z M105.366667,3.63333333 L105.366667,14.5333333 L3.63333333,14.5333333 L3.63333333,3.63333333 L105.366667,3.63333333 Z M3.63333333,105.366667 L3.63333333,18.1666667 L105.366667,18.1666667 L105.366667,105.366667 L3.63333333,105.366667 Z" id="Shape"></path>
                <rect id="Rectangle" x="7" y="7" width="4" height="4"></rect>
                <rect id="Rectangle" x="14" y="7" width="4" height="4"></rect>
                <rect id="Rectangle" x="22" y="7" width="4" height="4"></rect>
                <path d="M85.7307692,27 L80.3076923,27 C75.9439231,27 72.2923846,30.0978 71.4518077,34.2 L56.8076923,34.2 L56.8076923,30.6 L53.1923077,30.6 L53.1923077,34.2 L27.8846154,34.2 L27.8846154,30.6 L24.2692308,30.6 L24.2692308,34.2 L8,34.2 L8,37.8 L24.2692308,37.8 L24.2692308,41.4 L27.8846154,41.4 L27.8846154,37.8 L53.1923077,37.8 L53.1923077,41.4 L56.8076923,41.4 L56.8076923,37.8 L71.4518077,37.8 C72.2923846,41.9022 75.9421154,45 80.3076923,45 L85.7307692,45 C90.0945385,45 93.7460769,41.9022 94.5866538,37.8 L102,37.8 L102,34.2 L94.5866538,34.2 C93.7460769,30.0978 90.0945385,27 85.7307692,27 Z M85.7307692,41.4 L80.3076923,41.4 C77.3177692,41.4 74.8846154,38.9772 74.8846154,36 C74.8846154,33.0228 77.3177692,30.6 80.3076923,30.6 L85.7307692,30.6 C88.7206923,30.6 91.1538462,33.0228 91.1538462,36 C91.1538462,38.9772 88.7206923,41.4 85.7307692,41.4 Z" id="Shape"></path>
                <path d="M85.7307692,56.6 L82.1153846,56.6 L82.1153846,60.2 L56.8076923,60.2 L56.8076923,56.6 L53.1923077,56.6 L53.1923077,60.2 L34.9328077,60.2 C34.0922308,56.0978 30.4425,53 26.0769231,53 L20.6538462,53 C16.2900769,53 12.6385385,56.0978 11.7979615,60.2 L8,60.2 L8,63.8 L11.7979615,63.8 C12.6385385,67.9022 16.2882692,71 20.6538462,71 L26.0769231,71 C30.4406923,71 34.0922308,67.9022 34.9328077,63.8 L53.1923077,63.8 L53.1923077,67.4 L56.8076923,67.4 L56.8076923,63.8 L82.1153846,63.8 L82.1153846,67.4 L85.7307692,67.4 L85.7307692,63.8 L102,63.8 L102,60.2 L85.7307692,60.2 L85.7307692,56.6 Z M26.0769231,67.4 L20.6538462,67.4 C17.6639231,67.4 15.2307692,64.9772 15.2307692,62 C15.2307692,59.0228 17.6639231,56.6 20.6538462,56.6 L26.0769231,56.6 C29.0668462,56.6 31.5,59.0228 31.5,62 C31.5,64.9772 29.0668462,67.4 26.0769231,67.4 Z" id="Shape"></path>
                <path d="M85.7307692,81.6 L82.1153846,81.6 L82.1153846,85.2 L67.4712692,85.2 C66.6306923,81.0978 62.9809615,78 58.6153846,78 L53.1923077,78 C48.8285385,78 45.177,81.0978 44.3364231,85.2 L27.8846154,85.2 L27.8846154,81.6 L24.2692308,81.6 L24.2692308,85.2 L8,85.2 L8,88.8 L24.2692308,88.8 L24.2692308,92.4 L27.8846154,92.4 L27.8846154,88.8 L44.3364231,88.8 C45.177,92.9022 48.8267308,96 53.1923077,96 L58.6153846,96 C62.9791538,96 66.6306923,92.9022 67.4712692,88.8 L82.1153846,88.8 L82.1153846,92.4 L85.7307692,92.4 L85.7307692,88.8 L102,88.8 L102,85.2 L85.7307692,85.2 L85.7307692,81.6 Z M58.6153846,92.4 L53.1923077,92.4 C50.2023846,92.4 47.7692308,89.9772 47.7692308,87 C47.7692308,84.0228 50.2023846,81.6 53.1923077,81.6 L58.6153846,81.6 C61.6053077,81.6 64.0384615,84.0228 64.0384615,87 C64.0384615,89.9772 61.6053077,92.4 58.6153846,92.4 Z" id="Shape"></path>
            </g>
        </g>
    </g>
</svg>