<?xml version="1.0" encoding="UTF-8"?>
<svg width="54px" height="95px" viewBox="0 0 54 95" version="1.1" xmlns="http://www.w3.org/2000/svg" xmlns:xlink="http://www.w3.org/1999/xlink">
    <!-- Generator: Sketch 54.1 (76490) - https://sketchapp.com -->
    <title>noun_dollar_1923748</title>
    <desc>Created with Sketch.</desc>
    <g id="Page-1" stroke="none" stroke-width="1" fill="none" fill-rule="evenodd">
        <g id="wireframe" transform="translate(-218.000000, -1889.000000)" fill="#68B0AB" fill-rule="nonzero">
            <g id="noun_dollar_1923748" transform="translate(218.000000, 1889.000000)">
                <path d="M53.982391,63.245775 C54.2326749,57.9676444 51.8043381,52.8703021 47.3730985,49.3721531 C43.2879188,46.4449852 38.2857357,44.7238944 33.0580934,44.4468187 L24.4603306,43.2657906 C20.6256045,42.8178445 16.9840638,41.497066 13.8850638,39.4301656 C11.4120333,37.3503057 10.1175301,34.3868923 10.3599306,31.3603313 C10.3038675,27.5792872 12.1008641,23.9653101 15.2788899,21.4677103 C18.4569157,18.9701106 22.6983185,17.83853 26.8889773,18.3702094 C33.6451872,18.0504382 40.252706,20.219285 45.1700232,24.3707656 L50.564793,19.5509406 C45.0711467,14.9215519 37.8633387,12.2591779 30.3142849,12.0709375 L30.3142849,0 L23.6681061,0 L23.6681061,12.1065625 C17.8825855,12.0783467 12.3294223,14.138326 8.2679292,17.8193507 C4.20643613,21.5003754 1.98075295,26.4905438 2.09560664,31.6582156 C1.79387758,36.5956015 3.97748111,41.3951576 8.04932008,44.7444656 C12.2127791,47.6818904 17.2116507,49.5223521 22.4828266,50.0585281 L31.617667,51.3403156 C35.3542134,51.4134255 38.9588675,52.5881412 41.8704612,54.6815844 C44.4780134,56.9805096 45.8422722,60.1762288 45.6105319,63.4425438 C45.6105319,71.6083875 38.5603319,76.4329625 27.1039812,76.4329625 C19.0546826,76.8626045 11.2138131,74.0454831 5.73877601,68.756725 L0,73.8741375 C6.18002059,79.6581582 14.7179968,82.9605082 23.6681061,83.028575 L23.6681061,95 L30.3142849,95 L30.3142849,82.9198594 C44.6402563,81.9044281 53.982391,74.6434594 53.982391,63.245775 Z" id="Path"></path>
            </g>
        </g>
    </g>
</svg>