<?xml version="1.0" encoding="UTF-8"?>
<svg width="114px" height="116px" viewBox="0 0 114 116" version="1.1" xmlns="http://www.w3.org/2000/svg" xmlns:xlink="http://www.w3.org/1999/xlink">
    <!-- Generator: Sketch 54.1 (76490) - https://sketchapp.com -->
    <title>noun_entertainment_1724981</title>
    <desc>Created with Sketch.</desc>
    <g id="Page-1" stroke="none" stroke-width="1" fill="none" fill-rule="evenodd">
        <g id="wireframe" transform="translate(-760.000000, -1879.000000)" fill="#68B0AB" fill-rule="nonzero">
            <g id="noun_entertainment_1724981" transform="translate(760.000000, 1879.000000)">
                <path d="M111.868,62.64 C108.04,54.52 91.568,45.008 84.724,41.412 C84.028,41.064 83.216,40.716 82.404,40.368 C79.62,39.44 75.096,37.932 70.224,37.236 C70.224,27.608 67.092,13.804 65.12,8.12 C64.192,5.452 62.22,3.364 59.552,2.436 C55.144,0.812 45.052,-1.16 28.464,3.364 C10.832,8.236 3.756,17.98 1.088,23.316 C0.044,25.52 -0.188,28.072 0.624,30.392 C2.828,36.656 8.86,52.2 17.676,62.176 C26.608,72.268 36.816,77.256 40.76,78.88 C39.948,98.136 47.14,108.692 50.272,112.404 C51.2,113.448 52.476,114.26 53.868,114.608 C55.26,114.956 57.696,115.42 60.712,115.42 C66.048,115.42 73.704,114.028 82.52,108.576 C96.904,99.644 107.576,84.1 110.476,79.576 C110.824,78.996 111.172,78.532 111.52,78.068 C112.912,76.096 115.812,70.876 111.868,62.64 Z M41.572,74.124 C37.396,72.268 28.696,67.628 21.156,59.16 C12.92,49.764 7.12,34.8 5.032,28.884 C4.684,27.724 4.684,26.448 5.264,25.404 C7.584,20.764 13.848,12.18 29.74,7.888 C36.816,5.916 42.616,5.22 47.14,5.22 C52.36,5.22 55.956,6.032 58.044,6.844 C59.32,7.308 60.248,8.352 60.712,9.628 C62.452,14.732 65.468,27.84 65.584,36.772 C61.756,36.656 58.16,37.12 55.724,38.86 C53.404,40.484 51.2,44.428 49.228,49.416 C37.396,49.184 30.668,60.204 30.436,60.668 C29.74,61.712 30.204,63.22 31.248,63.8 C31.596,64.032 32.06,64.148 32.408,64.148 C33.22,64.148 33.916,63.8 34.38,62.988 C34.38,62.872 39.252,54.984 47.372,54.172 C45.284,59.856 43.544,66.352 42.036,72.152 C41.92,72.848 41.688,73.544 41.572,74.124 Z M107.808,75.284 C107.344,75.864 106.996,76.444 106.532,77.024 C103.748,81.316 93.54,96.164 79.968,104.632 C67.672,112.288 58.392,111.012 55.028,110.084 C54.564,109.968 54.1,109.736 53.868,109.272 C51.664,106.604 44.356,96.512 45.516,77.604 L45.516,77.604 C45.632,77.024 45.98,75.4 46.56,73.196 C50.736,56.608 55.26,44.892 58.508,42.572 C62.336,39.788 73.008,41.992 80.896,44.66 C81.476,44.892 82.056,45.124 82.52,45.356 C92.496,50.692 105.024,58.812 107.692,64.496 C110.476,70.644 108.736,74.008 107.808,75.284 Z" id="Shape"></path>
                <path d="M70.688,72.152 L70.688,72.152 C71.384,72.152 71.964,71.92 72.428,71.456 C72.892,70.992 73.124,70.412 73.124,69.716 C73.008,65.656 71.616,62.872 68.948,61.248 C63.96,58.116 56.768,61.248 55.956,61.712 C55.376,61.944 54.912,62.524 54.68,63.22 C54.448,63.916 54.564,64.612 55.028,65.192 C59.668,72.036 69.76,72.152 70.688,72.152 Z M66.512,65.192 C67.208,65.656 67.672,66.352 68.02,67.28 C66.048,66.932 63.38,66.352 61.176,64.844 C63.032,64.496 65.12,64.38 66.512,65.192 Z" id="Shape"></path>
                <path d="M79.272,71.804 C78.228,72.036 77.416,72.964 77.416,74.124 C77.416,80.852 88.9,85.144 91.104,85.956 C91.336,86.072 91.568,86.072 91.916,86.072 C92.38,86.072 92.844,85.956 93.192,85.724 C93.772,85.376 94.236,84.68 94.236,83.984 C94.7,79.692 93.656,76.444 91.22,74.24 C86.928,70.296 79.62,71.804 79.272,71.804 Z M83.216,76.212 C84.956,76.212 86.928,76.56 88.088,77.72 C88.784,78.3 89.248,79.228 89.48,80.272 C87.044,79.112 84.608,77.604 83.216,76.212 Z" id="Shape"></path>
                <path d="M82.752,90.596 C82.636,90.596 72.892,88.856 68.136,86.072 C63.38,83.172 55.84,75.516 55.724,75.4 C55.608,75.284 55.492,75.168 55.376,75.168 L54.448,74.472 C53.752,74.008 52.94,73.892 52.128,74.24 C51.432,74.588 50.852,75.284 50.736,76.096 C50.736,76.444 49.576,85.376 50.272,91.176 C50.968,96.86 54.1,100.34 54.796,101.036 C55.492,101.848 58.392,104.632 64.54,104.632 C65.352,104.632 66.28,104.632 67.208,104.516 C75.792,103.472 83.564,94.656 83.912,94.308 C84.492,93.728 84.608,92.8 84.376,91.988 C84.26,91.292 83.564,90.712 82.752,90.596 Z M66.86,99.992 C60.712,100.688 58.508,98.252 58.508,98.136 C58.392,98.02 58.276,97.904 58.276,97.788 C58.16,97.672 55.608,95.236 55.028,90.596 C54.68,87.812 54.796,84.1 55.028,81.2 C57.812,83.868 62.336,87.928 65.816,90.016 C69.064,91.988 74.052,93.38 77.648,94.192 C74.98,96.628 70.92,99.528 66.86,99.992 Z" id="Shape"></path>
                <path d="M32.524,46.632 C34.728,44.196 34.728,37.7 33.452,35.148 C32.524,33.176 30.9,32.944 30.32,33.06 C29.508,33.06 27.304,33.176 18.604,43.848 C18.488,43.964 18.372,44.196 18.256,44.428 L17.56,46.052 C17.328,46.748 17.328,47.56 17.676,48.14 C18.024,48.72 18.72,49.184 19.416,49.3 C21.388,49.532 23.012,49.532 24.404,49.532 C28.928,49.532 30.668,48.604 32.524,46.632 Z M29.044,43.5 C28.232,44.428 27.652,45.008 23.708,44.892 C25.796,42.34 28.116,39.904 29.624,38.512 C29.74,40.252 29.508,42.804 29.044,43.5 Z" id="Shape"></path>
                <path d="M47.952,38.628 C48.764,38.976 49.576,39.092 50.388,39.092 C51.2,39.092 52.012,38.976 52.824,38.628 C59.552,36.192 60.016,32.132 60.132,31.668 C60.248,30.856 59.784,30.044 59.204,29.58 C54.448,26.1 43.08,27.376 41.804,27.492 C40.644,27.608 39.716,28.652 39.716,29.812 C39.832,33.524 42.732,36.656 47.952,38.628 Z M54.564,32.48 C53.984,33.06 52.94,33.64 51.316,34.22 C50.736,34.452 50.156,34.452 49.576,34.22 C48.764,33.872 46.792,33.06 45.516,31.784 C48.648,31.784 52.128,31.9 54.564,32.48 Z" id="Shape"></path>
            </g>
        </g>
    </g>
</svg>