<?xml version="1.0" encoding="UTF-8"?>
<svg width="107px" height="85px" viewBox="0 0 107 85" version="1.1" xmlns="http://www.w3.org/2000/svg" xmlns:xlink="http://www.w3.org/1999/xlink">
    <!-- Generator: Sketch 54.1 (76490) - https://sketchapp.com -->
    <title>noun_Food_203355</title>
    <desc>Created with Sketch.</desc>
    <g id="Page-1" stroke="none" stroke-width="1" fill="none" fill-rule="evenodd">
        <g id="wireframe" transform="translate(-951.000000, -1893.000000)" fill="#68B0AB" fill-rule="nonzero">
            <g id="noun_Food_203355" transform="translate(951.000000, 1893.000000)">
                <path d="M9.9580908,38 C9.50620948,38 9.20495526,37.6633663 9.05432815,37.3267327 C8.90370104,36.8217822 9.05432815,36.1485149 9.65683659,35.980198 C15.9831752,33.4554455 15.0794125,28.4059406 14.9287854,28.2376238 L13.2718872,5.17821782 C13.2718872,4.67326733 13.5731414,4.16831683 14.1756498,4 C14.6275312,4 15.0794125,4.33663366 15.2300396,5.00990099 L16.8869378,27.9009901 L16.8869378,27.9009901 C16.8869378,27.9009901 18.3932089,34.6336634 10.4099721,37.8316832 C10.259345,38 10.1087179,38 9.9580908,38 Z" id="Path"></path>
                <path d="M7.03710201,38 C6.88328762,38 6.88328762,38 6.72947323,38 C-1.42268927,34.8019802 0.115454597,27.9009901 0.115454597,27.7326733 L1.80741285,5.00990099 C1.80741285,4.5049505 2.26885601,4 2.88411356,4 C3.34555672,4 3.80699988,4.5049505 3.80699988,5.17821782 L1.96122724,28.0693069 C1.96122724,28.4059406 0.884526531,33.2871287 7.34473078,35.980198 C7.80617394,36.1485149 8.11380271,36.8217822 7.95998833,37.3267327 C7.80617394,37.6633663 7.49854517,38 7.03710201,38 Z" id="Path"></path>
                <path d="M6,26 C5.5,26 5,25.5098039 5,25.0196078 L5,1.98039216 C5,1.49019608 5.5,1 6,1 C6.5,1 7,1.49019608 7,1.98039216 L7,25.0196078 C7,25.5098039 6.5,26 6,26 Z" id="Path"></path>
                <path d="M10,26 C9.5,26 9,25.5098039 9,25.0196078 L9,1.98039216 C9,1.49019608 9.5,1 10,1 C10.5,1 11,1.49019608 11,1.98039216 L11,25.0196078 C11,25.5098039 10.5,26 10,26 Z" id="Path"></path>
                <path d="M102.111583,47 C101.815875,47 101.668021,46.8310023 101.372313,46.6620045 C101.076606,46.3240091 98.1195291,42.4370611 97.5281138,40.4090883 C95.7538678,33.8181766 99.0066521,17.594394 99.154506,16.9184031 L99.4502136,15.2284257 C102.111583,0.525622725 102.259436,-0.150368217 104.625098,0.0186295188 C105.216513,0.0186295188 105.807928,0.35662499 106.25149,0.863618196 C107.138613,2.04660235 106.990759,3.90557744 106.990759,4.07457517 C106.990759,4.58156838 106.399344,5.08856159 105.955782,5.08856159 C105.512221,5.08856159 105.068659,4.58156838 105.068659,3.90557744 C105.068659,3.56758197 105.068659,2.55359555 104.772952,2.21560008 C104.772952,2.21560008 104.625098,2.04660235 104.477244,2.04660235 C104.181536,2.04660235 104.181536,2.04660235 104.181536,2.04660235 C103.590121,2.38459782 102.702998,7.11653441 101.22446,15.5664212 L100.928752,17.2563985 C100.928752,17.4253963 97.6759676,33.6491789 99.3023598,39.7330974 C99.7459213,41.254077 101.963729,44.1270385 102.702998,45.3100226 C102.998706,45.8170159 102.998706,46.3240091 102.702998,46.8310023 C102.555144,47 102.259436,47 102.111583,47 Z" id="Path"></path>
                <path d="M7.99400952,85 C6.26063559,85 5,83.4641638 5,81.7576792 L5,36.0238908 C5,35.5119454 5.47273834,35 5.94547669,35 C6.41821503,35 6.89095338,35.5119454 6.89095338,36.0238908 L6.89095338,81.7576792 C6.89095338,82.440273 7.36369172,82.9522184 7.99400952,82.9522184 C8.62432731,82.9522184 9.09706566,82.440273 9.09706566,81.7576792 L9.09706566,36.0238908 C9.09706566,35.5119454 9.569804,35 10.0425423,35 C10.5152807,35 10.988019,35.5119454 10.988019,36.0238908 L10.988019,81.7576792 C11.1455985,83.6348123 9.72738345,85 7.99400952,85 Z" id="Path"></path>
                <path d="M103.99401,85 C102.260636,85 101,83.490566 101,81.8134172 L101,46.7610063 C101,46.2578616 101.472738,45.754717 101.945477,45.754717 C102.418215,45.754717 102.890953,46.2578616 102.890953,46.7610063 L102.890953,81.8134172 C102.890953,82.4842767 103.363692,82.9874214 103.99401,82.9874214 C104.624327,82.9874214 105.097066,82.4842767 105.097066,81.8134172 L105.097066,6.00628931 C105.097066,5.50314465 105.569804,5 106.042542,5 C106.515281,5 106.988019,5.50314465 106.988019,6.00628931 L106.988019,81.8134172 C107.145598,83.490566 105.727383,85 103.99401,85 Z" id="Path"></path>
                <path d="M55.5,83 C36.4456067,83 21,65.1294363 21,43.0835073 C21,21.0375783 36.4456067,3 55.5,3 C74.5543933,3 90,21.0375783 90,43.0835073 C90,65.1294363 74.5543933,83 55.5,83 Z M55.5,5.17118998 C37.4560669,5.17118998 22.7322176,22.2066806 22.7322176,43.0835073 C22.7322176,63.960334 37.4560669,80.9958246 55.5,80.9958246 C73.5439331,80.9958246 88.2677824,63.960334 88.2677824,43.0835073 C88.2677824,22.2066806 73.5439331,5.17118998 55.5,5.17118998 Z" id="Shape"></path>
                <path d="M55.5,74 C40.9538043,74 29,60.1847826 29,43 C29,25.8152174 40.8097826,12 55.5,12 C70.0461957,12 82,25.8152174 82,43 C82,60.1847826 70.0461957,74 55.5,74 Z M55.5,14.0217391 C41.8179348,14.0217391 30.7282609,26.9945652 30.7282609,43 C30.7282609,59.0054348 41.8179348,71.8097826 55.5,71.8097826 C69.1820652,71.8097826 80.1277174,58.8369565 80.1277174,43 C80.1277174,26.9945652 69.0380435,14.0217391 55.5,14.0217391 Z" id="Shape"></path>
            </g>
        </g>
    </g>
</svg>