<?xml version="1.0" encoding="UTF-8"?>
<svg width="96px" height="96px" viewBox="0 0 96 96" version="1.1" xmlns="http://www.w3.org/2000/svg" xmlns:xlink="http://www.w3.org/1999/xlink">
    <!-- Generator: Sketch 54.1 (76490) - https://sketchapp.com -->
    <title>noun_partying_1882026</title>
    <desc>Created with Sketch.</desc>
    <g id="Page-1" stroke="none" stroke-width="1" fill="none" fill-rule="evenodd">
        <g id="wireframe" transform="translate(-1147.000000, -1889.000000)" fill="#68B0AB" fill-rule="nonzero">
            <g id="noun_partying_1882026" transform="translate(1147.000000, 1888.000000)">
                <path d="M94,1 L78,1 C77.6617648,0.993437893 77.3286949,1.08364432 77.04,1.26 C76.9391577,1.28583776 76.8485094,1.34162129 76.78,1.42 C76.6618238,1.4917294 76.5596994,1.58704549 76.48,1.7 C76.44,1.76 76.38,1.82 76.34,1.88 L65.7,15 L31.88,15 C30.8092973,6.4890163 23.2181416,0.336048784 14.6698723,1.05043016 C6.12160309,1.76481153 -0.342976812,9.09242099 0.0138370718,17.6630646 C0.370650956,26.2337082 7.42193227,32.998624 16,33 C18.9811227,33.0208174 21.9048624,32.1805026 24.42,30.58 L44,54.76 L44,85 L38,85 C34.6883284,85.0049124 32.0049124,87.6883284 32,91 C32.0096987,94.3096828 34.6903172,96.9903013 38,97 L62,97 C65.3116716,96.9950876 67.9950876,94.3116716 68,91 C67.9903449,87.690299 65.309701,85.0096551 62,85 L56,85 L56,54.76 L85.56,18.26 C86.0436386,17.6593725 86.1371286,16.8335445 85.8,16.14 C85.476207,15.4392517 84.7719092,14.9931964 84,15 L70.86,15 L78.96,5 L94,5 C95.1045695,5 96,4.1045695 96,3 C96,1.8954305 95.1045695,1 94,1 Z M16,29 C9.63367764,28.9958402 4.37862812,24.0207923 4.02623816,17.6642288 C3.6738482,11.3076654 8.34678096,5.78223813 14.6736324,5.07440455 C21.0004839,4.36657098 26.7789447,8.72272039 27.84,15 L16,15 C15.2280908,14.9931964 14.523793,15.4392517 14.2,16.14 C13.8628714,16.8335445 13.9563614,17.6593725 14.44,18.26 L21.9,27.46 C20.1020953,28.4810678 18.0675817,29.0121104 16,29 Z M79.8,19 L52.44,52.8 C52.1571295,53.1592922 52.0022803,53.602724 52,54.06 L52,87 C52.0032948,88.1032019 52.8967981,88.9967052 54,89 L62,89 C63.1032019,89.0032948 63.9967052,89.8967981 64,91 C64.0049165,91.5400145 63.7794007,92.0565184 63.38,92.42 C63.0217647,92.7984104 62.5210069,93.0088738 62,93 L38,93 C36.8967981,92.9967052 36.0032948,92.1032019 36,91 C35.9951167,90.4599923 36.2206268,89.9435014 36.62,89.58 C36.9782266,89.2015772 37.4789903,88.9911113 38,89 L46,89 C47.1032019,88.9967052 47.9967052,88.1032019 48,87 L48,54.06 C47.9977197,53.602724 47.8428705,53.1592922 47.56,52.8 L26.4,26.68 C26.38,26.66 26.38,26.64 26.36,26.62 L20.18,19 L79.8,19 Z" id="Shape"></path>
            </g>
        </g>
    </g>
</svg>