<?xml version="1.0" encoding="UTF-8"?>
<svg width="116px" height="116px" viewBox="0 0 116 116" version="1.1" xmlns="http://www.w3.org/2000/svg" xmlns:xlink="http://www.w3.org/1999/xlink">
    <!-- Generator: Sketch 54.1 (76490) - https://sketchapp.com -->
    <title>Group</title>
    <desc>Created with Sketch.</desc>
    <g id="Page-1" stroke="none" stroke-width="1" fill="none" fill-rule="evenodd">
        <g id="wireframe" transform="translate(-377.000000, -1878.000000)" fill="#68B0AB" fill-rule="nonzero">
            <g id="noun_Time_1968774" transform="translate(377.000000, 1878.000000)">
                <g id="Group">
                    <path d="M113.007371,36.6540984 C115.230467,34.8 115.230467,31.7811475 113.007371,29.9270492 L108.675184,26.3139344 C106.452088,24.4598361 102.832432,24.4598361 100.609337,26.3139344 L95.3081081,30.7590164 C87.2992629,25.1729508 77.5233415,21.3459016 66.6928747,20.0147541 L66.6928747,14.7377049 L69.7140049,14.7377049 C72.84914,14.7377049 75.5282555,12.5270492 75.5282555,9.88852459 L75.5282555,4.77786885 C75.5282555,2.16311475 72.84914,0 69.7140049,0 L46.5710074,0 C43.4358722,0 40.7567568,2.16311475 40.7567568,4.77786885 L40.7567568,9.88852459 C40.7567568,12.5032787 43.4358722,14.7377049 46.5710074,14.7377049 L49.5921376,14.7377049 L49.5921376,20.0147541 C21.6609337,23.4377049 0.256511057,43.547541 0.256511057,67.7459016 C0.256511057,94.345082 26.2211302,115.97623 58.1140049,115.97623 C90.0068796,115.97623 115.971499,94.345082 115.971499,67.7459016 C115.971499,58.1901639 112.636855,49.2762295 106.851106,41.7885246 L113.007371,36.6540984 Z M104.62801,29.6893443 L108.960197,33.302459 L103.516462,37.842623 C102.233907,36.5114754 100.894349,35.2278689 99.4407862,33.9918033 L104.62801,29.6893443 Z M46.4570025,9.98360656 L46.4570025,4.75409836 L69.8280098,4.75409836 L69.8280098,9.98360656 L66.607371,9.98360656 L60.9071253,9.98360656 L55.377887,9.98360656 L49.6776413,9.98360656 L46.4570025,9.98360656 Z M55.2923833,14.7377049 L60.992629,14.7377049 L60.992629,19.5631148 C59.8525799,19.5155738 59.0545455,19.5155738 58.1425061,19.5155738 C57.2304668,19.5155738 56.4324324,19.5393443 55.2923833,19.5631148 L55.2923833,14.7377049 Z M58.1425061,111.222131 C29.3847666,111.222131 6.01375921,91.7065574 6.01375921,67.7459016 C6.01375921,43.7852459 29.3847666,24.2459016 58.1425061,24.2459016 C86.9002457,24.2459016 110.271253,43.7614754 110.271253,67.7459016 C110.271253,91.7303279 86.9002457,111.222131 58.1425061,111.222131 Z" id="Shape"></path>
                    <path d="M58.1425061,29 C58.0855037,29 58.0570025,29 58,29 C57.9429975,29 57.8859951,29 57.8574939,29 C57.7719902,29 57.6864865,29 57.6009828,29 C32.5769042,29.2377049 12.2555283,46.0672131 11.7140049,66.8901639 C11.5144963,67.2229508 11.4004914,67.5795082 11.4004914,67.9598361 C11.4004914,68.3639344 11.5144963,68.7442623 11.7425061,69.0770492 C12.597543,89.6147541 32.7194103,106.159016 57.4584767,106.444262 C57.6009828,106.468033 57.7149877,106.468033 57.8574939,106.468033 C57.9714988,106.468033 58.0855037,106.468033 58.1995086,106.444262 C83.7936118,106.444262 104.599509,89.0918033 104.599509,67.7459016 C104.599509,46.3762295 83.7651106,29 58.1425061,29 Z M60.7076167,101.642623 L60.7076167,97.2213115 C60.7076167,95.9139344 59.4250614,94.8442623 57.8574939,94.8442623 C56.2899263,94.8442623 55.007371,95.9139344 55.007371,97.2213115 L55.007371,101.618852 C35.0280098,100.335246 19.0388206,87.0237705 17.5282555,70.3606557 L22.5159705,70.3606557 C24.0835381,70.3606557 25.3660934,69.2909836 25.3660934,67.9836066 C25.3660934,66.6762295 24.0835381,65.6065574 22.5159705,65.6065574 L17.4712531,65.6065574 C18.7253071,48.7295082 34.8285012,35.1327869 55.007371,33.8491803 L55.007371,38.2704918 C55.007371,39.5778689 56.2899263,40.647541 57.8574939,40.647541 C59.4250614,40.647541 60.7076167,39.5778689 60.7076167,38.2704918 L60.7076167,33.8254098 C81.1429975,34.895082 97.5312039,48.5631148 98.8137592,65.6065574 L93.1990172,65.6065574 C91.6314496,65.6065574 90.3488943,66.6762295 90.3488943,67.9836066 C90.3488943,69.2909836 91.6314496,70.3606557 93.1990172,70.3606557 L98.7567568,70.3606557 C97.2176904,87.1663934 80.9434889,100.596721 60.7076167,101.642623 Z" id="Shape"></path>
                    <path d="M74.3597052,65.8442623 L60.992629,65.8442623 L60.992629,50.1319672 C60.992629,48.8245902 59.7100737,47.754918 58.1425061,47.754918 C56.5749386,47.754918 55.2923833,48.8245902 55.2923833,50.1319672 L55.2923833,68.245082 C55.2923833,69.552459 56.4894349,70.5983607 58.0570025,70.5983607 L74.3312039,70.5983607 C75.8987715,70.5983607 77.1813268,69.5286885 77.1813268,68.2213115 C77.1813268,66.9139344 75.9272727,65.8442623 74.3597052,65.8442623 Z" id="Path"></path>
                </g>
            </g>
        </g>
    </g>
</svg>