<?xml version="1.0" encoding="UTF-8"?>
<svg width="95px" height="109px" viewBox="0 0 95 109" version="1.1" xmlns="http://www.w3.org/2000/svg" xmlns:xlink="http://www.w3.org/1999/xlink">
    <!-- Generator: Sketch 54.1 (76490) - https://sketchapp.com -->
    <title>noun_upload document_403328</title>
    <desc>Created with Sketch.</desc>
    <g id="Page-1" stroke="none" stroke-width="1" fill="none" fill-rule="evenodd">
        <g id="wireframe" transform="translate(-298.000000, -1137.000000)" fill="#000000" fill-rule="nonzero">
            <g id="noun_upload-document_403328" transform="translate(298.000000, 1137.000000)">
                <path d="M7.84615385,109 L65.3846154,109 C63.9461538,108.239535 62.7692308,107.47907 61.5923077,106.465116 L7.84615385,106.465116 C4.96923077,106.465116 2.61538462,104.183721 2.61538462,101.395349 L2.61538462,7.60465116 C2.61538462,4.81627907 4.96923077,2.53488372 7.84615385,2.53488372 L48.3846154,2.53488372 C49.8230769,2.53488372 51,3.04186047 52.0461538,4.05581395 C52.9615385,5.06976744 53.6153846,6.3372093 53.6153846,7.60465116 L53.6153846,20.2790698 C53.6153846,24.4616279 57.1461538,27.8837209 61.4615385,27.8837209 L77.1538462,27.8837209 C78.3307692,27.8837209 79.5076923,28.2639535 80.4230769,29.0244186 L80.8153846,29.4046512 C81.7307692,30.4186047 82.3846154,31.6860465 82.3846154,32.9534884 L82.3846154,69.455814 C83.3,69.7093023 84.2153846,70.0895349 85,70.4697674 L85,32.9534884 C85,30.9255814 84.2153846,29.0244186 82.6461538,27.6302326 C82.5153846,27.5034884 82.2538462,27.25 82.1230769,27.1232558 L53.8769231,2.15465116 L53.8769231,2.15465116 C52.4384615,0.760465116 50.4769231,0 48.3846154,0 L7.84615385,0 C3.53076923,0 0,3.42209302 0,7.60465116 L0,101.395349 C0,105.577907 3.53076923,109 7.84615385,109 Z M56.2307692,7.73139535 L76.2384615,25.3488372 L61.4615385,25.3488372 C58.5846154,25.3488372 56.2307692,23.0674419 56.2307692,20.2790698 L56.2307692,7.73139535 Z" id="Shape"></path>
                <path d="M16.2941176,27 L35.7058824,27 C36.4823529,27 37,26.4 37,25.5 C37,24.6 36.4823529,24 35.7058824,24 L16.2941176,24 C15.5176471,24 15,24.6 15,25.5 C15,26.4 15.5176471,27 16.2941176,27 Z" id="Path"></path>
                <path d="M16.3,42 L52.7,42 C53.48,42 54,41.4 54,40.5 C54,39.6 53.48,39 52.7,39 L16.3,39 C15.52,39 15,39.6 15,40.5 C15,41.4 15.52,42 16.3,42 Z" id="Path"></path>
                <path d="M67,46.5 C67,45.6 66.48,45 65.7,45 L16.3,45 C15.52,45 15,45.6 15,46.5 C15,47.4 15.52,48 16.3,48 L65.7,48 C66.48,48 67,47.4 67,46.5 Z" id="Path"></path>
                <path d="M63,53.5 C63,52.6 62.4810811,52 61.7027027,52 L16.2972973,52 C15.5189189,52 15,52.6 15,53.5 C15,54.4 15.5189189,55 16.2972973,55 L61.7027027,55 C62.4810811,55 63,54.4 63,53.5 Z" id="Path"></path>
                <path d="M16.2857143,61 L31.7142857,61 C32.4857143,61 33,60.4 33,59.5 C33,58.6 32.4857143,58 31.7142857,58 L16.2857143,58 C15.5142857,58 15,58.6 15,59.5 C15,60.4 15.5142857,61 16.2857143,61 Z" id="Path"></path>
                <path d="M16.3,84 L26.7,84 C27.48,84 28,83.4 28,82.5 C28,81.6 27.48,81 26.7,81 L16.3,81 C15.52,81 15,81.6 15,82.5 C15,83.4 15.52,84 16.3,84 Z" id="Path"></path>
                <path d="M16.2941176,90 L35.7058824,90 C36.4823529,90 37,89.4 37,88.5 C37,87.6 36.4823529,87 35.7058824,87 L16.2941176,87 C15.5176471,87 15,87.6 15,88.5 C15,89.4 15.5176471,90 16.2941176,90 Z" id="Path"></path>
                <path d="M75.5,71 C64.71,71 56,79.4866667 56,90 C56,100.513333 64.71,109 75.5,109 C86.29,109 95,100.513333 95,90 C95,79.4866667 86.29,71 75.5,71 Z M75.5,77.3333333 L80.7,86.0733333 L76.8,86.0733333 L76.8,95.0666667 L74.2,95.0666667 L74.2,86.0733333 L70.3,86.0733333 L75.5,77.3333333 Z M83.3,101.4 L67.7,101.4 L67.7,98.8666667 L83.3,98.8666667 L83.3,101.4 Z" id="Shape"></path>
            </g>
        </g>
    </g>
</svg>