<svg width="118" height="118" xmlns="http://www.w3.org/2000/svg"><g stroke="#68B0AB" stroke-width="2" fill="none" fill-rule="evenodd"><path d="M117 59c0 32.032-25.968 58-58 58S1 91.032 1 59 26.968 1 59 1s58 25.968 58 58h0z" stroke-linecap="round"/><path d="M115.674 46.673a57.775 57.775 0 0 0-12.226-24.92c-3.056.754-5.668 3.234-5.668 9.206 0 1.24-1.6 1.874-2.838 1.874h-.674c-3.064 0-5.946 1.85-6.894 4.764-1.58 4.864 2.06 9.402 6.708 9.402h19.47c.73 0 1.438-.13 2.122-.326h0z" stroke-linecap="round"/><path d="M43 17h32V9H43zM31 77h56v-8H31zm8-8v8m8-8v8m8-8v8m8-8v8m8-8v8m8-8v8m-20-8V27m0 50v40"/><path d="M59 117l24.868-24.868M59 117L34.158 92.158M59 77l-31 31m31-31l32.15 30.272M65 69l8-8m-20 8l-8-8m0 0l24-24m4 24L48.634 36.634M59 27l-10.366 9.634M59 27l10.472 10.472M39 77l20 20m0 0l20-20M59 97l-18 17.148M59 97l17.358 17.358M69 27V17H49v10c0 14.762-2.642 29.054-6.448 42h32.896C71.642 56.054 69 41.762 69 27h0zm9 50H40c-4.03 11.74-8.834 22.082-13.15 30.272A57.714 57.714 0 0 0 59 117a57.714 57.714 0 0 0 32.15-9.728C86.834 99.082 82.03 88.74 78 77h0zM51 9h16V1.562A58.622 58.622 0 0 0 59 1c-2.716 0-5.384.202-8 .562V9h0zm8 18l10-10M59 27L49 17" stroke-linecap="round"/></g></svg>