<svg width="109" height="109" xmlns="http://www.w3.org/2000/svg"><path d="M24.866 74.597l2.384-2.384 2.384 2.384 2.385-2.384-2.385-2.385 2.385-2.384-2.385-2.385-2.384 2.385-2.384-2.385-2.385 2.385 2.385 2.384-2.385 2.385zm-6.132 27.591h-5.109c-1.022 0-1.703.68-1.703 1.703 0 1.021.681 1.703 1.703 1.703h5.11c1.021 0 1.703-.681 1.703-1.703s-.682-1.704-1.704-1.704zm69.829 0h-5.11c-1.022 0-1.703.68-1.703 1.703 0 1.021.681 1.703 1.703 1.703h5.11c1.021 0 1.703-.681 1.703-1.703s-.682-1.704-1.704-1.704z"/><path d="M68.466 94.183l-9.708 11.41h-6.983l-11.41-11.41c-.342-.34-.682-.511-1.193-.511H1.703v3.406h36.788L49.9 108.49c.341.34.682.511 1.193.511h8.515c.511 0 1.022-.17 1.363-.51l9.708-11.412h36.617v-3.406H69.828c-.51 0-1.022.17-1.362.51z"/><path d="M107.297 0H66.422c-.511 0-1.022.17-1.363.681L59.95 7.494l2.725 2.043 4.598-6.13h38.32v83.452H64.72c-.511 0-1.022.17-1.363.511l-7.153 8.516V13.625c0-.51-.17-.852-.51-1.192L43.77.51C43.43.17 43.09 0 42.578 0H1.703C.681 0 0 .681 0 1.703v86.86c0 1.021.681 1.703 1.703 1.703h40.194l11.41 11.41c.341.341.682.511 1.193.511.17 0 .51 0 .681-.17.17-.17.511-.34.681-.51l9.708-11.412h41.727c1.022 0 1.703-.68 1.703-1.703V1.703C109 .681 108.319 0 107.297 0zm-54.5 96.397L43.77 87.37c-.34-.34-.68-.51-1.192-.51H3.406V3.405h38.49l10.9 10.9v82.09z"/><path d="M10.219 15.328c-1.022 0-1.703.681-1.703 1.703v17.032c0 1.021.68 1.703 1.703 1.703h30.656c1.022 0 1.703-.682 1.703-1.703V17.03c0-1.022-.681-1.703-1.703-1.703H10.219zM39.172 32.36h-27.25V18.734h27.25V32.36zm1.703 27.25H10.219c-1.022 0-1.703.68-1.703 1.703v17.03c0 1.023.68 1.704 1.703 1.704h30.656c1.022 0 1.703-.681 1.703-1.703V61.313c0-1.022-.681-1.704-1.703-1.704zm-1.703 17.03h-27.25V63.017h27.25V76.64zM8.516 8.516H27.25v3.406H8.516zm0 32.359H27.25v3.406H8.516zm0 6.813H27.25v3.406H8.516zm83.453-35.766h8.516v3.406h-8.516zm0 6.812h8.516v3.406h-8.516zm0 6.813h8.516v3.406h-8.516zM61.313 63.016h8.516v3.406h-8.516zm0 6.812h8.516v3.406h-8.516zm0 6.813h8.516v3.406h-8.516zM73.745 9.367c-8.175 0-14.647 6.642-14.647 14.647 0 7.494 11.922 22.652 13.285 24.355.34.34.851.681 1.362.681.511 0 1.022-.17 1.363-.681 1.362-1.703 13.284-16.861 13.284-24.355 0-8.175-6.642-14.647-14.647-14.647zm0 35.255c-4.087-5.28-11.24-15.84-11.24-20.608 0-6.131 5.11-11.24 11.24-11.24 6.132 0 11.24 5.109 11.24 11.24 0 4.769-7.152 15.328-11.24 20.608z"/><path d="M73.745 19.756a4.216 4.216 0 0 0-4.258 4.258 4.216 4.216 0 0 0 4.258 4.258 4.216 4.216 0 0 0 4.258-4.258 4.216 4.216 0 0 0-4.258-4.258zm0 5.11c-.51 0-.851-.341-.851-.852 0-.51.34-.851.851-.851.511 0 .852.34.852.851 0 .511-.34.852-.852.852zm.682 34.914c0 7.493 11.921 22.651 13.284 24.354.34.341.852.682 1.362.682.511 0 1.022-.17 1.363-.682 1.362-1.703 13.284-16.86 13.284-24.354 0-8.175-6.642-14.647-14.647-14.647-8.004 0-14.646 6.472-14.646 14.647zm25.887 0c0 4.768-7.153 15.328-11.24 20.608-4.088-5.28-11.241-15.84-11.241-20.608 0-6.132 5.11-11.24 11.24-11.24 6.132 0 11.241 4.938 11.241 11.24z"/><path d="M84.816 59.78a4.216 4.216 0 0 0 4.257 4.257 4.216 4.216 0 0 0 4.258-4.257 4.216 4.216 0 0 0-4.258-4.258 4.216 4.216 0 0 0-4.257 4.258zm5.109 0c0 .51-.34.851-.852.851-.51 0-.851-.34-.851-.851 0-.511.34-.852.851-.852.511 0 .852.34.852.852z"/></svg>