<svg width="109" height="109" xmlns="http://www.w3.org/2000/svg"><path d="M107.183 0H1.817A1.816 1.816 0 0 0 0 1.817v105.366C0 108.186.812 109 1.817 109h105.366a1.816 1.816 0 0 0 1.817-1.817V1.817A1.816 1.816 0 0 0 107.183 0zm-1.816 3.633v10.9H3.633v-10.9h101.734zM3.633 105.367v-87.2h101.734v87.2H3.633z"/><path d="M7 7h4v4H7zm7 0h4v4h-4zm8 0h4v4h-4zm63.73 20h-5.422a9.046 9.046 0 0 0-8.856 7.2H56.808v-3.6h-3.616v3.6H27.885v-3.6h-3.616v3.6H8v3.6h16.27v3.6h3.615v-3.6h25.307v3.6h3.616v-3.6h14.644a9.044 9.044 0 0 0 8.856 7.2h5.423a9.046 9.046 0 0 0 8.856-7.2H102v-3.6h-7.413A9.046 9.046 0 0 0 85.73 27zm0 14.4h-5.422c-2.99 0-5.423-2.423-5.423-5.4 0-2.977 2.433-5.4 5.423-5.4h5.423c2.99 0 5.423 2.423 5.423 5.4 0 2.977-2.433 5.4-5.423 5.4zm0 15.2h-3.615v3.6H56.808v-3.6h-3.616v3.6h-18.26a9.044 9.044 0 0 0-8.855-7.2h-5.423a9.046 9.046 0 0 0-8.856 7.2H8v3.6h3.798a9.044 9.044 0 0 0 8.856 7.2h5.423a9.046 9.046 0 0 0 8.856-7.2h18.26v3.6h3.615v-3.6h25.307v3.6h3.616v-3.6H102v-3.6H85.73v-3.6zM26.078 67.4h-5.423c-2.99 0-5.423-2.423-5.423-5.4 0-2.977 2.433-5.4 5.423-5.4h5.423c2.99 0 5.423 2.423 5.423 5.4 0 2.977-2.433 5.4-5.423 5.4zM85.73 81.6h-3.615v3.6H67.471a9.044 9.044 0 0 0-8.856-7.2h-5.423a9.046 9.046 0 0 0-8.856 7.2H27.885v-3.6h-3.616v3.6H8v3.6h16.27v3.6h3.615v-3.6h16.451a9.044 9.044 0 0 0 8.856 7.2h5.423a9.046 9.046 0 0 0 8.856-7.2h14.644v3.6h3.616v-3.6H102v-3.6H85.73v-3.6zM58.616 92.4h-5.423c-2.99 0-5.423-2.423-5.423-5.4 0-2.977 2.433-5.4 5.423-5.4h5.423c2.99 0 5.423 2.423 5.423 5.4 0 2.977-2.433 5.4-5.423 5.4z"/></svg>