<svg width="54" height="95" xmlns="http://www.w3.org/2000/svg"><path d="M53.982 63.246c.25-5.278-2.178-10.376-6.609-13.874-4.085-2.927-9.087-4.648-14.315-4.925l-8.598-1.181c-3.834-.448-7.476-1.769-10.575-3.836-2.473-2.08-3.767-5.043-3.525-8.07-.056-3.78 1.74-7.395 4.919-9.892 3.178-2.498 7.42-3.63 11.61-3.098 6.756-.32 13.364 1.85 18.281 6l5.395-4.82c-5.494-4.628-12.702-7.29-20.25-7.48V0h-6.647v12.107c-5.785-.029-11.339 2.031-15.4 5.712C4.206 21.5 1.98 26.491 2.096 31.66c-.302 4.937 1.881 9.736 5.953 13.085 4.164 2.938 9.163 4.778 14.434 5.315l9.135 1.281c3.736.073 7.34 1.248 10.252 3.342 2.608 2.299 3.972 5.494 3.74 8.76 0 8.166-7.05 12.991-18.506 12.991-8.05.43-15.89-2.388-21.365-7.676L0 73.874c6.18 5.784 14.718 9.087 23.668 9.155V95h6.646V82.92c14.326-1.016 23.668-8.277 23.668-19.674z" fill="#68B0AB"/></svg>