<svg width="114" height="116" xmlns="http://www.w3.org/2000/svg"><g fill="#68B0AB"><path d="M111.868 62.64c-3.828-8.12-20.3-17.632-27.144-21.228-.696-.348-1.508-.696-2.32-1.044-2.784-.928-7.308-2.436-12.18-3.132 0-9.628-3.132-23.432-5.104-29.116-.928-2.668-2.9-4.756-5.568-5.684-4.408-1.624-14.5-3.596-31.088.928C10.832 8.236 3.756 17.98 1.088 23.316.044 25.52-.188 28.072.624 30.392 2.828 36.656 8.86 52.2 17.676 62.176c8.932 10.092 19.14 15.08 23.084 16.704-.812 19.256 6.38 29.812 9.512 33.524.928 1.044 2.204 1.856 3.596 2.204 1.392.348 3.828.812 6.844.812 5.336 0 12.992-1.392 21.808-6.844 14.384-8.932 25.056-24.476 27.956-29 .348-.58.696-1.044 1.044-1.508 1.392-1.972 4.292-7.192.348-15.428zM41.572 74.124c-4.176-1.856-12.876-6.496-20.416-14.964C12.92 49.764 7.12 34.8 5.032 28.884c-.348-1.16-.348-2.436.232-3.48 2.32-4.64 8.584-13.224 24.476-17.516 7.076-1.972 12.876-2.668 17.4-2.668 5.22 0 8.816.812 10.904 1.624 1.276.464 2.204 1.508 2.668 2.784 1.74 5.104 4.756 18.212 4.872 27.144-3.828-.116-7.424.348-9.86 2.088-2.32 1.624-4.524 5.568-6.496 10.556-11.832-.232-18.56 10.788-18.792 11.252-.696 1.044-.232 2.552.812 3.132.348.232.812.348 1.16.348.812 0 1.508-.348 1.972-1.16 0-.116 4.872-8.004 12.992-8.816-2.088 5.684-3.828 12.18-5.336 17.98-.116.696-.348 1.392-.464 1.972zm66.236 1.16c-.464.58-.812 1.16-1.276 1.74-2.784 4.292-12.992 19.14-26.564 27.608-12.296 7.656-21.576 6.38-24.94 5.452-.464-.116-.928-.348-1.16-.812-2.204-2.668-9.512-12.76-8.352-31.668.116-.58.464-2.204 1.044-4.408 4.176-16.588 8.7-28.304 11.948-30.624 3.828-2.784 14.5-.58 22.388 2.088.58.232 1.16.464 1.624.696 9.976 5.336 22.504 13.456 25.172 19.14 2.784 6.148 1.044 9.512.116 10.788z"/><path d="M70.688 72.152c.696 0 1.276-.232 1.74-.696.464-.464.696-1.044.696-1.74-.116-4.06-1.508-6.844-4.176-8.468-4.988-3.132-12.18 0-12.992.464-.58.232-1.044.812-1.276 1.508a2.027 2.027 0 0 0 .348 1.972c4.64 6.844 14.732 6.96 15.66 6.96zm-4.176-6.96c.696.464 1.16 1.16 1.508 2.088-1.972-.348-4.64-.928-6.844-2.436 1.856-.348 3.944-.464 5.336.348zm12.76 6.612a2.37 2.37 0 0 0-1.856 2.32c0 6.728 11.484 11.02 13.688 11.832.232.116.464.116.812.116.464 0 .928-.116 1.276-.348.58-.348 1.044-1.044 1.044-1.74.464-4.292-.58-7.54-3.016-9.744-4.292-3.944-11.6-2.436-11.948-2.436zm3.944 4.408c1.74 0 3.712.348 4.872 1.508.696.58 1.16 1.508 1.392 2.552-2.436-1.16-4.872-2.668-6.264-4.06zm-.464 14.384c-.116 0-9.86-1.74-14.616-4.524-4.756-2.9-12.296-10.556-12.412-10.672-.116-.116-.232-.232-.348-.232l-.928-.696c-.696-.464-1.508-.58-2.32-.232-.696.348-1.276 1.044-1.392 1.856 0 .348-1.16 9.28-.464 15.08.696 5.684 3.828 9.164 4.524 9.86.696.812 3.596 3.596 9.744 3.596.812 0 1.74 0 2.668-.116 8.584-1.044 16.356-9.86 16.704-10.208.58-.58.696-1.508.464-2.32-.116-.696-.812-1.276-1.624-1.392zM66.86 99.992c-6.148.696-8.352-1.74-8.352-1.856-.116-.116-.232-.232-.232-.348-.116-.116-2.668-2.552-3.248-7.192-.348-2.784-.232-6.496 0-9.396 2.784 2.668 7.308 6.728 10.788 8.816 3.248 1.972 8.236 3.364 11.832 4.176-2.668 2.436-6.728 5.336-10.788 5.8zm-34.336-53.36c2.204-2.436 2.204-8.932.928-11.484-.928-1.972-2.552-2.204-3.132-2.088-.812 0-3.016.116-11.716 10.788-.116.116-.232.348-.348.58l-.696 1.624c-.232.696-.232 1.508.116 2.088.348.58 1.044 1.044 1.74 1.16 1.972.232 3.596.232 4.988.232 4.524 0 6.264-.928 8.12-2.9zm-3.48-3.132c-.812.928-1.392 1.508-5.336 1.392 2.088-2.552 4.408-4.988 5.916-6.38.116 1.74-.116 4.292-.58 4.988zm18.908-4.872c.812.348 1.624.464 2.436.464.812 0 1.624-.116 2.436-.464 6.728-2.436 7.192-6.496 7.308-6.96.116-.812-.348-1.624-.928-2.088-4.756-3.48-16.124-2.204-17.4-2.088-1.16.116-2.088 1.16-2.088 2.32.116 3.712 3.016 6.844 8.236 8.816zm6.612-6.148c-.58.58-1.624 1.16-3.248 1.74-.58.232-1.16.232-1.74 0-.812-.348-2.784-1.16-4.06-2.436 3.132 0 6.612.116 9.048.696z"/></g></svg>