<svg width="107" height="85" xmlns="http://www.w3.org/2000/svg"><g fill="#68B0AB"><path d="M9.958 38c-.452 0-.753-.337-.904-.673-.15-.505 0-1.178.603-1.347 6.326-2.525 5.422-7.574 5.272-7.742l-1.657-23.06c0-.505.301-1.01.904-1.178.452 0 .903.337 1.054 1.01l1.657 22.89s1.506 6.733-6.477 9.93c-.15.169-.301.169-.452.169zm-2.921 0H6.73C-1.423 34.802.115 27.901.115 27.733L1.807 5.01c0-.505.462-1.01 1.077-1.01.462 0 .923.505.923 1.178L1.961 28.07c0 .337-1.076 5.218 5.384 7.911.461.169.769.842.615 1.347-.154.336-.461.673-.923.673z"/><path d="M6 26c-.5 0-1-.49-1-.98V1.98C5 1.49 5.5 1 6 1s1 .49 1 .98v23.04c0 .49-.5.98-1 .98zm4 0c-.5 0-1-.49-1-.98V1.98c0-.49.5-.98 1-.98s1 .49 1 .98v23.04c0 .49-.5.98-1 .98zm92.112 21c-.296 0-.444-.169-.74-.338-.295-.338-3.252-4.225-3.844-6.253-1.774-6.59 1.479-22.815 1.627-23.49l.295-1.69c2.662-14.703 2.81-15.38 5.175-15.21.592 0 1.183.338 1.626.845.888 1.183.74 3.042.74 3.21 0 .508-.592 1.015-1.035 1.015-.444 0-.887-.507-.887-1.183 0-.338 0-1.352-.296-1.69 0 0-.148-.17-.296-.17h-.295c-.592.339-1.479 5.07-2.958 13.52l-.295 1.69c0 .17-3.253 16.393-1.627 22.477.444 1.521 2.662 4.394 3.401 5.577.296.507.296 1.014 0 1.521-.148.169-.444.169-.591.169zM7.994 85C6.261 85 5 83.464 5 81.758V36.024c0-.512.473-1.024.945-1.024.473 0 .946.512.946 1.024v45.734c0 .682.473 1.194 1.103 1.194s1.103-.512 1.103-1.194V36.024c0-.512.473-1.024.946-1.024.472 0 .945.512.945 1.024v45.734C11.146 83.635 9.728 85 7.994 85z"/><path d="M103.994 85c-1.733 0-2.994-1.51-2.994-3.187V46.761c0-.503.473-1.006.945-1.006.473 0 .946.503.946 1.006v35.052c0 .671.473 1.174 1.103 1.174s1.103-.503 1.103-1.174V6.006c0-.503.473-1.006.946-1.006.472 0 .945.503.945 1.006v75.807c.158 1.678-1.26 3.187-2.994 3.187zM55.5 83C36.446 83 21 65.13 21 43.084 21 21.038 36.446 3 55.5 3 74.554 3 90 21.038 90 43.084 90 65.129 74.554 83 55.5 83zm0-77.829c-18.044 0-32.768 17.036-32.768 37.913 0 20.876 14.724 37.912 32.768 37.912S88.268 63.96 88.268 43.084C88.268 22.207 73.544 5.17 55.5 5.17z"/><path d="M55.5 74C40.954 74 29 60.185 29 43c0-17.185 11.81-31 26.5-31C70.046 12 82 25.815 82 43c0 17.185-11.954 31-26.5 31zm0-59.978c-13.682 0-24.772 12.973-24.772 28.978 0 16.005 11.09 28.81 24.772 28.81 13.682 0 24.628-12.973 24.628-28.81 0-16.005-11.09-28.978-24.628-28.978z"/></g></svg>