<svg width="96" height="96" xmlns="http://www.w3.org/2000/svg"><path d="M94 0H78a1.775 1.775 0 0 0-.96.26.515.515 0 0 0-.26.16c-.118.072-.22.167-.3.28-.04.06-.1.12-.14.18L65.7 14H31.88C30.81 5.489 23.218-.664 14.67.05 6.122.765-.343 8.092.014 16.663.37 25.233 7.422 32 16 32c2.981.02 5.905-.82 8.42-2.42L44 53.76V84h-6a6.009 6.009 0 0 0-6 6 6.018 6.018 0 0 0 6 6h24a6.009 6.009 0 0 0 6-6 6.018 6.018 0 0 0-6-6h-6V53.76l29.56-36.5c.484-.6.577-1.426.24-2.12A1.964 1.964 0 0 0 84 14H70.86l8.1-10H94a2 2 0 1 0 0-4zM16 28a12 12 0 1 1 11.84-14H16a1.964 1.964 0 0 0-1.8 1.14 1.992 1.992 0 0 0 .24 2.12l7.46 9.2A11.807 11.807 0 0 1 16 28zm63.8-10L52.44 51.8c-.283.36-.438.803-.44 1.26V86a2.006 2.006 0 0 0 2 2h8a2.006 2.006 0 0 1 2 2c.005.54-.22 1.057-.62 1.42A1.857 1.857 0 0 1 62 92H38a2.006 2.006 0 0 1-2-2c-.005-.54.22-1.056.62-1.42A1.857 1.857 0 0 1 38 88h8a2.006 2.006 0 0 0 2-2V53.06a2.053 2.053 0 0 0-.44-1.26L26.4 25.68c-.02-.02-.02-.04-.04-.06L20.18 18H79.8z" fill="#68B0AB"/></svg>