<svg width="116" height="116" xmlns="http://www.w3.org/2000/svg"><g fill="#68B0AB"><path d="M113.007 36.654c2.223-1.854 2.223-4.873 0-6.727l-4.332-3.613c-2.223-1.854-5.843-1.854-8.066 0l-5.3 4.445c-8.01-5.586-17.786-9.413-28.616-10.744v-5.277h3.021c3.135 0 5.814-2.211 5.814-4.85v-5.11C75.528 2.163 72.85 0 69.714 0H46.571c-3.135 0-5.814 2.163-5.814 4.778v5.11c0 2.615 2.679 4.85 5.814 4.85h3.021v5.277C21.661 23.438.257 43.548.257 67.745c0 26.6 25.964 48.231 57.857 48.231s57.857-21.63 57.857-48.23c0-9.556-3.334-18.47-9.12-25.957l6.156-5.135zm-8.379-6.965l4.332 3.613-5.444 4.54a56.208 56.208 0 0 0-4.075-3.85l5.187-4.303zM46.457 9.984v-5.23h23.371v5.23H46.457zm8.835 4.754h5.7v4.825c-1.14-.047-1.937-.047-2.85-.047-.912 0-1.71.023-2.85.047v-4.825zm2.85 96.484c-28.757 0-52.128-19.515-52.128-43.476 0-23.96 23.37-43.5 52.129-43.5 28.757 0 52.128 19.515 52.128 43.5 0 23.984-23.37 43.476-52.128 43.476z"/><path d="M58.143 29H57.6c-25.024.238-45.345 17.067-45.887 37.89-.2.333-.314.69-.314 1.07 0 .404.114.784.343 1.117.855 20.538 20.976 37.082 45.715 37.367.143.024.257.024.4.024.113 0 .228 0 .342-.024 25.594 0 46.4-17.352 46.4-38.698C104.6 46.376 83.765 29 58.143 29zm2.565 72.643V97.22c0-1.307-1.283-2.377-2.85-2.377-1.568 0-2.85 1.07-2.85 2.377v4.398c-19.98-1.284-35.97-14.595-37.48-31.258h4.988c1.568 0 2.85-1.07 2.85-2.377 0-1.308-1.282-2.377-2.85-2.377h-5.045C18.725 48.73 34.83 35.133 55.007 33.849v4.421c0 1.308 1.283 2.378 2.85 2.378 1.568 0 2.85-1.07 2.85-2.378v-4.445c20.436 1.07 36.824 14.738 38.107 31.782h-5.615c-1.568 0-2.85 1.07-2.85 2.377 0 1.307 1.282 2.377 2.85 2.377h5.558c-1.54 16.805-17.814 30.236-38.05 31.282z"/><path d="M74.36 65.844H60.993V50.132c0-1.307-1.283-2.377-2.85-2.377-1.568 0-2.85 1.07-2.85 2.377v18.113c0 1.307 1.196 2.353 2.764 2.353h16.274c1.568 0 2.85-1.07 2.85-2.377 0-1.307-1.254-2.377-2.821-2.377z"/></g></svg>