<svg width="95" height="109" xmlns="http://www.w3.org/2000/svg"><path d="M7.846 109h57.539c-1.439-.76-2.616-1.52-3.793-2.535H7.846c-2.877 0-5.23-2.281-5.23-5.07V7.605c0-2.789 2.353-5.07 5.23-5.07h40.539c1.438 0 2.615.507 3.661 1.52.916 1.015 1.57 2.282 1.57 3.55v12.674c0 4.183 3.53 7.605 7.846 7.605h15.692c1.177 0 2.354.38 3.27 1.14l.391.38c.916 1.015 1.57 2.282 1.57 3.55v36.502c.915.253 1.83.634 2.615 1.014V32.953c0-2.027-.785-3.929-2.354-5.323l-.523-.507L53.877 2.155C52.438.76 50.477 0 48.385 0H7.846C3.531 0 0 3.422 0 7.605v93.79C0 105.578 3.53 109 7.846 109zM56.231 7.731L76.238 25.35H61.462c-2.877 0-5.231-2.282-5.231-5.07V7.731z"/><path d="M16.294 27h19.412c.776 0 1.294-.6 1.294-1.5s-.518-1.5-1.294-1.5H16.294c-.776 0-1.294.6-1.294 1.5s.518 1.5 1.294 1.5zm.006 15h36.4c.78 0 1.3-.6 1.3-1.5s-.52-1.5-1.3-1.5H16.3c-.78 0-1.3.6-1.3 1.5s.52 1.5 1.3 1.5zM67 46.5c0-.9-.52-1.5-1.3-1.5H16.3c-.78 0-1.3.6-1.3 1.5s.52 1.5 1.3 1.5h49.4c.78 0 1.3-.6 1.3-1.5zm-4 7c0-.9-.519-1.5-1.297-1.5H16.297C15.52 52 15 52.6 15 53.5s.519 1.5 1.297 1.5h45.406C62.48 55 63 54.4 63 53.5zM16.286 61h15.428c.772 0 1.286-.6 1.286-1.5s-.514-1.5-1.286-1.5H16.286c-.772 0-1.286.6-1.286 1.5s.514 1.5 1.286 1.5zm.014 23h10.4c.78 0 1.3-.6 1.3-1.5s-.52-1.5-1.3-1.5H16.3c-.78 0-1.3.6-1.3 1.5s.52 1.5 1.3 1.5zm-.006 6h19.412c.776 0 1.294-.6 1.294-1.5s-.518-1.5-1.294-1.5H16.294c-.776 0-1.294.6-1.294 1.5s.518 1.5 1.294 1.5zM75.5 71C64.71 71 56 79.487 56 90s8.71 19 19.5 19S95 100.513 95 90s-8.71-19-19.5-19zm0 6.333l5.2 8.74h-3.9v8.994h-2.6v-8.994h-3.9l5.2-8.74zm7.8 24.067H67.7v-2.533h15.6v2.533z"/></svg>